<?xml version="1.0" encoding="UTF-8"?>
<!DOCTYPE svg PUBLIC "-//W3C//DTD SVG 1.1//EN" "http://www.w3.org/Graphics/SVG/1.1/DTD/svg11.dtd">
<!-- Creator: CorelDRAW X8 -->
<?xml-stylesheet href="loc.css" type="text/css"?>
<svg xmlns="http://www.w3.org/2000/svg" xml:space="preserve" width="210mm" height="297mm" version="1.1" style="shape-rendering:geometricPrecision; text-rendering:geometricPrecision; image-rendering:optimizeQuality; fill-rule:evenodd; clip-rule:evenodd"
viewBox="0 0 21000 29700"
 xmlns:xlink="http://www.w3.org/1999/xlink"
 aria-hidden="true"
 focusable="false"
 data-prefix="fas"
 data-icon="map-marker-alt"
 role="img">
 <g id="Layer_x0020_1">
  <metadata id="CorelCorpID_0Corel-Layer"/>
  <g id="_2840946783776">
   <path class="fil0" d="M10843 14679c-7,-12 -8,-13 -8,-17 0,-6 4,-11 9,-11 5,0 9,5 9,11 0,4 -1,5 -8,17 0,0 -1,0 -2,0l0 0zm1 -13c2,0 4,-2 4,-4 0,-3 -2,-5 -4,-5 -2,0 -4,2 -4,5 0,2 2,4 4,4z"/>
  </g>
 </g>
</svg>
